<svg width="51" height="51" viewBox="0 0 51 51" fill="none" xmlns="http://www.w3.org/2000/svg"><path d="M42.6667 21.6666V13.6666C42.6667 10.7253 40.2747 8.33325 37.3333 8.33325H29.3333C29.3333 3.92259 25.744 0.333252 21.3333 0.333252C16.9227 0.333252 13.3333 3.92259 13.3333 8.33325H5.33333C2.392 8.33325 0 10.7253 0 13.6666V24.0159L1.75733 24.6533C3.896 25.4266 5.33333 27.4426 5.33333 29.6666C5.33333 31.8906 3.896 33.9066 1.75733 34.6799L0 35.3173V45.6666C0 48.6079 2.392 50.9999 5.33333 50.9999H15.6827L16.32 49.2426C17.0933 47.1039 19.1093 45.6666 21.3333 45.6666C23.5573 45.6666 25.5733 47.1039 26.3467 49.2426L26.984 50.9999H37.3333C40.2747 50.9999 42.6667 48.6079 42.6667 45.6666V37.6666C47.0773 37.6666 50.6667 34.0773 50.6667 29.6666C50.6667 25.2559 47.0773 21.6666 42.6667 21.6666ZM42.6667 32.3333H37.3333L37.3253 45.6666H30.5387C28.6427 42.4133 25.1467 40.3333 21.3333 40.3333C17.52 40.3333 14.024 42.4133 12.128 45.6666H5.33333V38.8719C8.58667 36.9759 10.6667 33.4799 10.6667 29.6666C10.6667 25.8533 8.58667 22.3573 5.33333 20.4613V13.6666H18.6667V8.33325C18.6667 7.62601 18.9476 6.94773 19.4477 6.44763C19.9478 5.94754 20.6261 5.66659 21.3333 5.66659C22.0406 5.66659 22.7189 5.94754 23.219 6.44763C23.719 6.94773 24 7.62601 24 8.33325V13.6666H37.3333V26.9999H42.6667C43.3739 26.9999 44.0522 27.2809 44.5523 27.781C45.0524 28.2811 45.3333 28.9593 45.3333 29.6666C45.3333 30.3738 45.0524 31.0521 44.5523 31.5522C44.0522 32.0523 43.3739 32.3333 42.6667 32.3333Z" fill="#9579F0"></path></svg>