<svg width="119" height="140" viewBox="0 0 119 140" fill="none" xmlns="http://www.w3.org/2000/svg">
<g id="Group 1244">
<path id="1" d="M3.46201 140L2.85106 123.434L23.0122 120.404V28.0808L4.07295 31.5151L0 13.9394L46.6353 0L49.69 1.81817V121.414L67 124.04L66.3891 140H3.46201Z" fill="url(#paint0_linear_101_57)"/>
<path id="%" d="M67.5134 66.9188C65.5505 66.9188 64.0407 67.731 62.9837 69.3553C62.0275 70.8274 61.5494 72.8325 61.5494 75.3706C61.5494 80.9543 63.5374 83.7462 67.5134 83.7462C71.5397 83.7462 73.5528 80.9543 73.5528 75.3706C73.5528 72.934 73.0496 70.9289 72.043 69.3553C70.9861 67.731 69.4762 66.9188 67.5134 66.9188ZM67.5134 59.9137C72.043 59.9137 75.4905 61.4112 77.856 64.4061C79.9698 67.0964 81.0267 70.7513 81.0267 75.3706C81.0267 79.9898 79.9698 83.6193 77.856 86.2589C75.4905 89.3046 72.043 90.8274 67.5134 90.8274C62.8831 90.8274 59.4104 89.3046 57.0952 86.2589C55.0317 83.5685 54 79.9391 54 75.3706C54 70.7513 55.0317 67.0964 57.0952 64.4061C59.4607 61.4112 62.9334 59.9137 67.5134 59.9137ZM107.072 59L74.0813 119H65.8525L98.7677 59H107.072ZM105.411 94.2538C101.435 94.2538 99.4472 97.0711 99.4472 102.706C99.4472 105.193 99.9504 107.173 100.957 108.645C102.014 110.32 103.499 111.157 105.411 111.157C109.437 111.157 111.451 108.34 111.451 102.706C111.451 97.0711 109.437 94.2538 105.411 94.2538ZM105.411 87.1726C109.991 87.1726 113.464 88.6701 115.829 91.665C117.943 94.3553 119 98.0355 119 102.706C119 107.325 117.943 110.954 115.829 113.594C113.464 116.589 109.991 118.086 105.411 118.086C100.882 118.086 97.434 116.589 95.0685 113.594C93.0554 110.954 92.0488 107.325 92.0488 102.706C92.0488 97.9848 93.0554 94.3046 95.0685 91.665C97.434 88.6701 100.882 87.1726 105.411 87.1726Z" fill="#71DCCA"/>
</g>
<defs>
<linearGradient id="paint0_linear_101_57" x1="33.5" y1="0" x2="33" y2="229" gradientUnits="userSpaceOnUse">
<stop stop-color="#71DCCA"/>
<stop offset="0.322917" stop-color="#81E0D0"/>
<stop offset="1" stop-color="white"/>
</linearGradient>
</defs>
</svg>
