<svg width="378" height="50" viewBox="0 0 378 50" fill="none" xmlns="http://www.w3.org/2000/svg">
<g id="Logo">
<g id="s m a r t p o o L">
<path d="M15.0328 6.57678C14.1475 6.09196 13.2411 5.69145 12.3136 5.37526C11.4072 5.05907 10.5535 4.90097 9.75244 4.90097C8.7617 4.90097 7.98177 5.10122 7.41262 5.50173C6.84348 5.90224 6.5589 6.50301 6.5589 7.30402C6.5589 7.85209 6.7697 8.34746 7.19129 8.79013C7.63395 9.21171 8.19256 9.59114 8.8671 9.92842C9.56272 10.2657 10.2794 10.5713 11.0172 10.8454C11.6917 11.0983 12.3557 11.404 13.0092 11.7623C13.6838 12.0996 14.2845 12.5317 14.8115 13.0587C15.3385 13.5646 15.7601 14.2075 16.0763 14.9875C16.3925 15.7463 16.5506 16.6844 16.5506 17.8016C16.5506 18.982 16.2449 20.0782 15.6336 21.09C15.0223 22.1018 14.1264 22.9239 12.946 23.5563C11.7655 24.1676 10.311 24.4732 8.58253 24.4732C7.69719 24.4732 6.79078 24.3889 5.86328 24.2203C4.95687 24.0306 4.06099 23.7565 3.17565 23.3982C2.29032 23.0187 1.4366 22.5445 0.614502 21.9753L2.63813 18.4023C3.18619 18.8029 3.77642 19.1612 4.4088 19.4774C5.06226 19.7725 5.71573 20.0044 6.36919 20.173C7.02265 20.3417 7.62341 20.426 8.17148 20.426C8.71955 20.426 9.26761 20.3522 9.81568 20.2046C10.3848 20.036 10.8486 19.762 11.2069 19.3825C11.5863 19.0031 11.7761 18.4761 11.7761 17.8016C11.7761 17.3378 11.618 16.9162 11.3018 16.5368C11.0067 16.1574 10.5956 15.8096 10.0686 15.4934C9.56272 15.1772 9.00412 14.9032 8.39281 14.6713C7.67611 14.3973 6.93833 14.0811 6.17947 13.7227C5.42061 13.3644 4.70391 12.9322 4.02937 12.4263C3.37591 11.8993 2.83838 11.2564 2.41679 10.4976C2.01628 9.71762 1.81603 8.76905 1.81603 7.65184C1.81603 6.30275 2.11114 5.13284 2.70137 4.14211C3.31267 3.15138 4.16639 2.37144 5.26252 1.80229C6.35865 1.21207 7.62342 0.885336 9.05682 0.822099C10.9329 0.822099 12.4506 1.04343 13.61 1.4861C14.7904 1.92877 15.8444 2.45575 16.7719 3.06706L15.0328 6.57678Z" fill="url(#paint0_linear_103_2)"/>
<path d="M41.6055 24.2203V0H41.6371L54.5694 18.3391L52.609 17.8964L65.5096 0H65.5728V24.2203H60.9881V10.3395L61.2726 12.7109L53.3995 23.9041H53.3362L45.2417 12.7109L46.0322 10.5292V24.2203H41.6055Z" fill="url(#paint1_linear_103_2)"/>
<path d="M89.5286 24.2203L100.026 0.0316188H100.279L110.777 24.2203H105.465L98.7614 7.20917L102.081 4.93259L94.0501 24.2203H89.5286ZM96.7061 15.8096H103.694L105.307 19.6671H95.2832L96.7061 15.8096Z" fill="url(#paint2_linear_103_2)"/>
<path d="M141.785 0.948574C143.239 0.948574 144.536 1.13829 145.674 1.51772C146.812 1.87607 147.761 2.40306 148.52 3.09868C149.3 3.77322 149.89 4.59532 150.29 5.56497C150.691 6.51355 150.891 7.5886 150.891 8.79013C150.891 9.7387 150.744 10.6873 150.449 11.6358C150.175 12.5844 149.711 13.4487 149.057 14.2286C148.425 15.0086 147.582 15.6409 146.528 16.1258C145.474 16.5895 144.167 16.8214 142.607 16.8214H139.319V24.2203H134.734V0.948574H141.785ZM142.575 12.3947C143.271 12.3947 143.851 12.2788 144.314 12.0469C144.778 11.815 145.137 11.5199 145.389 11.1616C145.664 10.8032 145.853 10.4343 145.959 10.0549C146.085 9.65438 146.148 9.28549 146.148 8.94822C146.148 8.69527 146.106 8.37908 146.022 7.99965C145.959 7.59914 145.811 7.19863 145.579 6.79812C145.347 6.39761 144.989 6.06034 144.504 5.78631C144.04 5.51227 143.408 5.37526 142.607 5.37526H139.319V12.3947H142.575ZM146.876 15.2404L152.63 24.2203H147.287L141.405 15.3669L146.876 15.2404Z" fill="url(#paint3_linear_103_2)"/>
<path d="M175.394 0.948574H191.077V5.37526H185.417V24.2203H180.833V5.37526H175.394V0.948574Z" fill="url(#paint4_linear_103_2)"/>
<path d="M233.4 0.948574C235.318 0.948574 236.942 1.27531 238.27 1.92877C239.598 2.56115 240.609 3.46757 241.305 4.64802C242.001 5.80739 242.348 7.18809 242.348 8.79013C242.348 9.7387 242.201 10.6978 241.906 11.6675C241.632 12.616 241.178 13.4803 240.546 14.2602C239.935 15.0402 239.102 15.6726 238.048 16.1574C237.015 16.6211 235.74 16.853 234.222 16.853H230.934V24.2203H226.349V0.948574H233.4ZM234.191 12.3947C234.886 12.3947 235.466 12.2788 235.93 12.0469C236.393 11.7939 236.752 11.4883 237.005 11.1299C237.279 10.7505 237.468 10.3605 237.574 9.96003C237.7 9.55952 237.764 9.21171 237.764 8.9166C237.764 8.68473 237.721 8.37908 237.637 7.99965C237.574 7.59914 237.426 7.19863 237.194 6.79812C236.963 6.39761 236.604 6.06034 236.119 5.78631C235.656 5.51227 235.023 5.37526 234.222 5.37526H230.934V12.3947H234.191Z" fill="url(#paint5_linear_103_2)"/>
<path d="M265.593 12.616C265.593 11.014 265.898 9.49629 266.51 8.06288C267.121 6.62948 267.964 5.36472 269.039 4.26859C270.135 3.15138 271.4 2.27658 272.833 1.6442C274.267 1.01181 275.806 0.695622 277.45 0.695622C279.073 0.695622 280.601 1.01181 282.035 1.6442C283.468 2.27658 284.733 3.15138 285.829 4.26859C286.946 5.36472 287.81 6.62948 288.422 8.06288C289.054 9.49629 289.37 11.014 289.37 12.616C289.37 14.2602 289.054 15.799 288.422 17.2324C287.81 18.6658 286.946 19.9306 285.829 21.0267C284.733 22.1018 283.468 22.945 282.035 23.5563C280.601 24.1676 279.073 24.4732 277.45 24.4732C275.806 24.4732 274.267 24.1676 272.833 23.5563C271.4 22.945 270.135 22.1018 269.039 21.0267C267.964 19.9306 267.121 18.6658 266.51 17.2324C265.898 15.799 265.593 14.2602 265.593 12.616ZM270.336 12.616C270.336 13.6489 270.515 14.6186 270.873 15.525C271.252 16.4103 271.769 17.2008 272.422 17.8964C273.097 18.571 273.866 19.098 274.731 19.4774C275.616 19.8568 276.575 20.0465 277.608 20.0465C278.599 20.0465 279.516 19.8568 280.359 19.4774C281.223 19.098 281.971 18.571 282.604 17.8964C283.236 17.2008 283.731 16.4103 284.09 15.525C284.448 14.6186 284.627 13.6489 284.627 12.616C284.627 11.5621 284.438 10.5819 284.058 9.67546C283.7 8.76905 283.194 7.97857 282.541 7.30402C281.908 6.6084 281.16 6.07088 280.296 5.69145C279.431 5.31202 278.493 5.1223 277.481 5.1223C276.47 5.1223 275.532 5.31202 274.667 5.69145C273.803 6.07088 273.044 6.6084 272.391 7.30402C271.737 7.97857 271.231 8.76905 270.873 9.67546C270.515 10.5819 270.336 11.5621 270.336 12.616Z" fill="url(#paint6_linear_103_2)"/>
<path d="M313.083 12.616C313.083 11.014 313.389 9.49629 314 8.06288C314.611 6.62948 315.455 5.36472 316.53 4.26859C317.626 3.15138 318.891 2.27658 320.324 1.6442C321.757 1.01181 323.296 0.695622 324.94 0.695622C326.563 0.695622 328.092 1.01181 329.525 1.6442C330.959 2.27658 332.223 3.15138 333.319 4.26859C334.437 5.36472 335.301 6.62948 335.912 8.06288C336.545 9.49629 336.861 11.014 336.861 12.616C336.861 14.2602 336.545 15.799 335.912 17.2324C335.301 18.6658 334.437 19.9306 333.319 21.0267C332.223 22.1018 330.959 22.945 329.525 23.5563C328.092 24.1676 326.563 24.4732 324.94 24.4732C323.296 24.4732 321.757 24.1676 320.324 23.5563C318.891 22.945 317.626 22.1018 316.53 21.0267C315.455 19.9306 314.611 18.6658 314 17.2324C313.389 15.799 313.083 14.2602 313.083 12.616ZM317.826 12.616C317.826 13.6489 318.005 14.6186 318.364 15.525C318.743 16.4103 319.259 17.2008 319.913 17.8964C320.587 18.571 321.357 19.098 322.221 19.4774C323.106 19.8568 324.066 20.0465 325.098 20.0465C326.089 20.0465 327.006 19.8568 327.849 19.4774C328.714 19.098 329.462 18.571 330.094 17.8964C330.727 17.2008 331.222 16.4103 331.58 15.525C331.939 14.6186 332.118 13.6489 332.118 12.616C332.118 11.5621 331.928 10.5819 331.549 9.67546C331.19 8.76905 330.684 7.97857 330.031 7.30402C329.399 6.6084 328.65 6.07088 327.786 5.69145C326.922 5.31202 325.984 5.1223 324.972 5.1223C323.96 5.1223 323.022 5.31202 322.158 5.69145C321.294 6.07088 320.535 6.6084 319.881 7.30402C319.228 7.97857 318.722 8.76905 318.364 9.67546C318.005 10.5819 317.826 11.5621 317.826 12.616Z" fill="url(#paint7_linear_103_2)"/>
<path d="M361.996 0.948574H366.581V19.7936H377.521V24.2203H361.996V0.948574Z" fill="url(#paint8_linear_103_2)"/>
</g>
<g id="S O L">
<path d="M175.374 38.1033C174.886 37.853 174.353 37.6356 173.773 37.4512C173.193 37.2667 172.627 37.1745 172.073 37.1745C171.309 37.1745 170.697 37.3524 170.236 37.7081C169.788 38.0638 169.564 38.5381 169.564 39.1309C169.564 39.5789 169.709 39.9609 169.998 40.2771C170.288 40.5802 170.67 40.8437 171.145 41.0676C171.619 41.2916 172.113 41.5024 172.627 41.7C173.075 41.8713 173.516 42.0623 173.951 42.2731C174.386 42.4839 174.774 42.7474 175.117 43.0636C175.472 43.3798 175.749 43.7684 175.947 44.2295C176.158 44.6906 176.263 45.2637 176.263 45.9488C176.263 46.6998 176.072 47.3849 175.69 48.0041C175.321 48.6233 174.787 49.1107 174.089 49.4665C173.391 49.8222 172.561 50 171.599 50C170.967 50 170.361 49.9276 169.781 49.7826C169.214 49.6377 168.688 49.4533 168.2 49.2293C167.713 48.9922 167.278 48.7484 166.896 48.4981L167.746 46.9962C168.062 47.2202 168.424 47.4376 168.832 47.6484C169.241 47.846 169.669 48.0107 170.117 48.1424C170.565 48.261 171 48.3203 171.421 48.3203C171.869 48.3203 172.311 48.2412 172.745 48.0831C173.193 47.9118 173.562 47.6549 173.852 47.3124C174.142 46.9699 174.287 46.5153 174.287 45.9488C174.287 45.4614 174.155 45.0595 173.891 44.7433C173.641 44.414 173.305 44.1373 172.884 43.9133C172.462 43.6762 172.014 43.4654 171.54 43.281C171.092 43.1097 170.637 42.9252 170.176 42.7276C169.715 42.5168 169.287 42.2665 168.892 41.9767C168.496 41.6737 168.18 41.3048 167.943 40.87C167.706 40.4352 167.587 39.9083 167.587 39.289C167.587 38.5381 167.765 37.8859 168.121 37.3326C168.49 36.7661 168.991 36.3247 169.623 36.0086C170.255 35.6792 170.98 35.5013 171.797 35.475C172.719 35.475 173.529 35.587 174.227 35.8109C174.939 36.0349 175.565 36.3116 176.105 36.6409L175.374 38.1033Z" fill="white"/>
<path d="M184.848 42.7079C184.848 41.7198 185.033 40.791 185.402 39.9214C185.784 39.0387 186.311 38.2614 186.983 37.5895C187.654 36.9044 188.425 36.3709 189.295 35.9888C190.177 35.5936 191.126 35.3959 192.14 35.3959C193.142 35.3959 194.077 35.5936 194.947 35.9888C195.829 36.3709 196.607 36.9044 197.279 37.5895C197.964 38.2614 198.497 39.0387 198.879 39.9214C199.261 40.791 199.452 41.7198 199.452 42.7079C199.452 43.7223 199.261 44.6709 198.879 45.5536C198.497 46.4363 197.964 47.2136 197.279 47.8855C196.607 48.5442 195.829 49.0646 194.947 49.4467C194.077 49.8156 193.142 50 192.14 50C191.126 50 190.177 49.8156 189.295 49.4467C188.425 49.0778 187.654 48.564 186.983 47.9053C186.311 47.2465 185.784 46.4758 185.402 45.5931C185.033 44.7104 184.848 43.7487 184.848 42.7079ZM186.824 42.7276C186.824 43.4786 186.963 44.1834 187.239 44.8422C187.516 45.4877 187.898 46.0608 188.386 46.5614C188.873 47.0621 189.44 47.4573 190.085 47.7472C190.731 48.0238 191.429 48.1622 192.18 48.1622C192.918 48.1622 193.609 48.0238 194.255 47.7472C194.901 47.4573 195.46 47.0621 195.935 46.5614C196.409 46.0608 196.784 45.4877 197.061 44.8422C197.338 44.1834 197.476 43.472 197.476 42.7079C197.476 41.9569 197.338 41.2521 197.061 40.5933C196.784 39.9214 196.402 39.3352 195.915 38.8345C195.428 38.3339 194.861 37.9452 194.215 37.6686C193.57 37.3787 192.878 37.2338 192.14 37.2338C191.389 37.2338 190.691 37.3787 190.046 37.6686C189.4 37.9584 188.834 38.3536 188.346 38.8543C187.859 39.3549 187.483 39.9412 187.22 40.6131C186.956 41.2718 186.824 41.9767 186.824 42.7276Z" fill="white"/>
<path d="M208.935 35.554H210.852V48.0041H218.104V49.8419H208.935V35.554Z" fill="white"/>
</g>
<path id="Vector 1 (Stroke)" fill-rule="evenodd" clip-rule="evenodd" d="M41.5969 41.8222H157.698V42.8103H41.5969V41.8222Z" fill="white"/>
<path id="Vector 2 (Stroke)" fill-rule="evenodd" clip-rule="evenodd" d="M221.925 41.8222H338.026V42.8103H221.925V41.8222Z" fill="white"/>
</g>
<defs>
<linearGradient id="paint0_linear_103_2" x1="190.041" y1="-3.10861" x2="190.041" y2="28.7479" gradientUnits="userSpaceOnUse">
<stop stop-color="white"/>
<stop offset="0.197917" stop-color="#B7DDFF"/>
<stop offset="0.375" stop-color="#6FFFFF"/>
<stop offset="0.515625" stop-color="#64B6FF"/>
<stop offset="0.713542" stop-color="white"/>
<stop offset="1" stop-color="#2D9CFF"/>
</linearGradient>
<linearGradient id="paint1_linear_103_2" x1="190.041" y1="-3.10861" x2="190.041" y2="28.7479" gradientUnits="userSpaceOnUse">
<stop stop-color="white"/>
<stop offset="0.197917" stop-color="#B7DDFF"/>
<stop offset="0.375" stop-color="#6FFFFF"/>
<stop offset="0.515625" stop-color="#64B6FF"/>
<stop offset="0.713542" stop-color="white"/>
<stop offset="1" stop-color="#2D9CFF"/>
</linearGradient>
<linearGradient id="paint2_linear_103_2" x1="190.041" y1="-3.10861" x2="190.041" y2="28.7479" gradientUnits="userSpaceOnUse">
<stop stop-color="white"/>
<stop offset="0.197917" stop-color="#B7DDFF"/>
<stop offset="0.375" stop-color="#6FFFFF"/>
<stop offset="0.515625" stop-color="#64B6FF"/>
<stop offset="0.713542" stop-color="white"/>
<stop offset="1" stop-color="#2D9CFF"/>
</linearGradient>
<linearGradient id="paint3_linear_103_2" x1="190.041" y1="-3.10861" x2="190.041" y2="28.7479" gradientUnits="userSpaceOnUse">
<stop stop-color="white"/>
<stop offset="0.197917" stop-color="#B7DDFF"/>
<stop offset="0.375" stop-color="#6FFFFF"/>
<stop offset="0.515625" stop-color="#64B6FF"/>
<stop offset="0.713542" stop-color="white"/>
<stop offset="1" stop-color="#2D9CFF"/>
</linearGradient>
<linearGradient id="paint4_linear_103_2" x1="190.041" y1="-3.10861" x2="190.041" y2="28.7479" gradientUnits="userSpaceOnUse">
<stop stop-color="white"/>
<stop offset="0.197917" stop-color="#B7DDFF"/>
<stop offset="0.375" stop-color="#6FFFFF"/>
<stop offset="0.515625" stop-color="#64B6FF"/>
<stop offset="0.713542" stop-color="white"/>
<stop offset="1" stop-color="#2D9CFF"/>
</linearGradient>
<linearGradient id="paint5_linear_103_2" x1="190.041" y1="-3.10861" x2="190.041" y2="28.7479" gradientUnits="userSpaceOnUse">
<stop stop-color="white"/>
<stop offset="0.197917" stop-color="#B7DDFF"/>
<stop offset="0.375" stop-color="#6FFFFF"/>
<stop offset="0.515625" stop-color="#64B6FF"/>
<stop offset="0.713542" stop-color="white"/>
<stop offset="1" stop-color="#2D9CFF"/>
</linearGradient>
<linearGradient id="paint6_linear_103_2" x1="190.041" y1="-3.10861" x2="190.041" y2="28.7479" gradientUnits="userSpaceOnUse">
<stop stop-color="white"/>
<stop offset="0.197917" stop-color="#B7DDFF"/>
<stop offset="0.375" stop-color="#6FFFFF"/>
<stop offset="0.515625" stop-color="#64B6FF"/>
<stop offset="0.713542" stop-color="white"/>
<stop offset="1" stop-color="#2D9CFF"/>
</linearGradient>
<linearGradient id="paint7_linear_103_2" x1="190.041" y1="-3.10861" x2="190.041" y2="28.7479" gradientUnits="userSpaceOnUse">
<stop stop-color="white"/>
<stop offset="0.197917" stop-color="#B7DDFF"/>
<stop offset="0.375" stop-color="#6FFFFF"/>
<stop offset="0.515625" stop-color="#64B6FF"/>
<stop offset="0.713542" stop-color="white"/>
<stop offset="1" stop-color="#2D9CFF"/>
</linearGradient>
<linearGradient id="paint8_linear_103_2" x1="190.041" y1="-3.10861" x2="190.041" y2="28.7479" gradientUnits="userSpaceOnUse">
<stop stop-color="white"/>
<stop offset="0.197917" stop-color="#B7DDFF"/>
<stop offset="0.375" stop-color="#6FFFFF"/>
<stop offset="0.515625" stop-color="#64B6FF"/>
<stop offset="0.713542" stop-color="white"/>
<stop offset="1" stop-color="#2D9CFF"/>
</linearGradient>
</defs>
</svg>
