<svg width="126" height="28" viewBox="0 0 126 28" fill="none" xmlns="http://www.w3.org/2000/svg">
<g id="metamask 1" clip-path="url(#clip0_101_32)">
<g id="Layer_x0020_1">
<g id="_3194194741168">
<path id="Vector" fill-rule="evenodd" clip-rule="evenodd" d="M19.9403 17.8207C18.9345 17.8319 18.0655 18.5172 17.0722 18.3984C16.7637 17.6235 16.5132 15.979 16.6684 15.1256L22.6962 14.8564C22.3837 15.5725 21.4187 16.5229 20.8012 17.1708L20.0891 17.7407C20.0661 17.6984 19.9917 17.7977 19.9403 17.8205V17.8207ZM12.0934 18.5446L9.42965 17.7003C8.5906 17.4961 8.50539 17.1741 7.89957 16.5414C7.6666 16.2982 7.3983 16.0645 7.20801 15.8318C6.68753 15.1955 6.9713 15.7291 6.705 14.8861L12.6782 15.1021C12.8913 15.9333 12.6361 17.9699 12.0932 18.5446H12.0934ZM2.11422 13.8535C1.90179 15.5251 0.235426 19.1425 0.231692 20.3671C0.229425 21.1044 1.81818 26.4 2.16516 26.8729C3.79126 26.5406 6.55578 25.4134 8.05532 25.3928L8.62474 24.9365L7.72381 23.8704C7.48284 23.4995 7.24748 23.1428 7.00224 22.7679C6.57872 22.1207 5.81821 21.0315 5.60498 20.5016L9.14281 20.5232L8.74875 24.8913L12.4159 23.1429C13.2578 22.5164 15.9783 22.4533 16.9267 23.0743L20.5895 24.8383L20.2006 21.4168C20.1921 21.2568 20.1854 21.0765 20.2058 20.9242L23.7402 20.4675L20.847 25.0474L21.2673 25.3468L27.3292 26.8982C27.6363 25.8278 29.126 21.1494 29.1256 20.3723C29.1249 18.8664 27.2622 15.4239 27.323 13.8764C25.6131 13.5384 22.857 12.6805 21.1738 12.1211C20.5865 11.9258 17.273 9.00683 16.9343 8.50353C17.2487 7.79906 18.7024 6.94496 19.452 6.3782L27.2165 0.352448C27.2344 0.275996 27.2848 0.264371 27.3174 0.219238C25.2767 0.926726 23.4387 1.69289 21.4167 2.46124C18.2717 3.65643 18.3988 3.55727 14.7373 3.55727C13.6981 3.55727 11.7372 3.67079 10.8081 3.51118C10.1028 3.39001 8.62167 2.71494 7.88503 2.43238C5.9565 1.69275 4.04383 0.907716 2.08649 0.227854C2.24184 1.10206 11.3044 6.93196 12.4387 8.50326C12.0516 9.18873 11.9661 9.05087 11.3575 9.54487C10.3865 10.333 9.08333 11.7739 8.1112 12.1296C6.61512 12.6769 3.70098 13.5159 2.11436 13.8535H2.11422Z" fill="#F97500"/>
<path id="Vector_2" fill-rule="evenodd" clip-rule="evenodd" d="M27.3174 0.21897C27.2848 0.264103 27.2344 0.275728 27.2166 0.35218L19.452 6.37793C18.7024 6.94469 17.2488 7.79879 16.9343 8.50327C17.273 9.00643 20.5866 11.9255 21.1739 12.1209C22.857 12.6802 25.6131 13.5382 27.323 13.8761C29.6612 11.2023 27.0982 12.6883 28.8041 11.1106L28.2879 10.346C28.8415 10.1073 28.552 10.2989 29.0246 9.85957C27.9251 8.23179 29.0367 8.2032 29.3665 4.89635C29.4511 4.04553 28.3077 0.831543 27.9024 0.0354309L27.3175 0.21897H27.3174Z" fill="#7E3B0E"/>
<path id="Vector_3" fill-rule="evenodd" clip-rule="evenodd" d="M2.11419 13.8534C3.70081 13.5159 6.61495 12.6768 8.11103 12.1295C9.08317 11.7738 10.3863 10.333 11.3574 9.54477C11.966 9.05078 12.0514 9.18864 12.4386 8.50317C11.3043 6.93173 2.24181 1.10196 2.08632 0.22776L1.31141 -9.15527e-05C1.05564 1.25596 -0.0518498 3.76575 0.00189104 4.79669C0.0740345 6.18157 1.43289 8.67057 0.374077 9.73118C0.641181 10.1888 0.594374 10.0901 1.06857 10.2751L0.547834 11.2367L1.30834 11.8256C0.921887 12.3762 1.09431 11.914 0.929355 12.6584C1.54557 13.1492 1.65692 13.3906 2.11419 13.8533V13.8534Z" fill="#7E3B0E"/>
<path id="Vector_4" fill-rule="evenodd" clip-rule="evenodd" d="M83.7399 12.2244C84.9526 13.0436 85.9401 14.8523 87.1778 15.4871C88.4304 14.7954 89.3744 13.0312 90.6494 12.2128L90.6549 20.9566L92.5113 20.9306C92.4917 16.9838 92.5423 13.0303 92.5249 9.0863C92.5178 7.46427 92.2378 7.823 91.4781 8.60133L87.1777 12.9131C86.2005 11.9547 85.2928 11.037 84.2873 10.0361C82.0846 7.84324 81.8284 7.14861 81.8176 9.08535C81.7955 13.0277 81.8218 16.9998 81.8355 20.9807L83.6864 20.8927L83.7398 12.2244H83.7399Z" fill="white"/>
<path id="Vector_5" fill-rule="evenodd" clip-rule="evenodd" d="M40.233 12.223C41.445 13.0365 42.4376 14.8523 43.6736 15.4866C44.9366 14.7864 45.8623 13.0302 47.1452 12.2133L47.1486 20.9577L49.0078 20.9296L48.8998 8.06546C48.3544 7.938 46.8091 9.78283 46.2585 10.3359C45.372 11.2262 44.5538 12.1 43.6738 12.9124C42.6987 11.9481 41.7895 11.0372 40.7843 10.0346C38.5774 7.83364 38.3238 7.15118 38.3133 9.08532C38.2919 13.022 38.3062 17.001 38.3337 20.9795L40.183 20.8891L40.2331 12.223H40.233Z" fill="white"/>
<path id="Vector_6" fill-rule="evenodd" clip-rule="evenodd" d="M120.568 14.2101C121.04 13.3519 125.137 8.80443 125.486 8.07861L123.28 8.08969C122.956 8.69255 121.569 10.2632 121.001 10.8518C120.277 11.6037 119.547 12.8374 118.668 13.4475L118.653 8.11021L116.756 8.11157L116.757 20.9539L118.652 20.9307L118.659 14.9799L119.145 15.4198C119.286 15.5705 119.352 15.6795 119.513 15.876L121.413 18.2166C123.524 20.7264 123.087 21.3327 126 20.8942C125.812 20.7287 124.913 19.5826 124.63 19.2149C124.194 18.6485 123.709 18.0457 123.275 17.5294C122.666 16.8044 122.507 16.6054 121.895 15.8803C121.525 15.4415 120.856 14.6538 120.567 14.2101H120.568Z" fill="white"/>
<path id="Vector_7" fill-rule="evenodd" clip-rule="evenodd" d="M99.9497 12.0505C100.486 12.6721 101.678 15.7014 101.963 16.7571L97.9006 16.7107L99.9497 12.0504V12.0505ZM97.209 18.3557H102.725C104 21.2617 103.205 21.0352 105.871 20.921C105.266 19.4133 100.53 8.34037 99.8705 7.91885L94.0527 20.9529L96.1158 20.9522L97.209 18.3556V18.3557Z" fill="white"/>
<path id="Vector_8" fill-rule="evenodd" clip-rule="evenodd" d="M74.4061 12.0505C74.9425 12.6721 76.1344 15.7014 76.4195 16.757L72.357 16.7107L74.4061 12.0504V12.0505ZM71.6653 18.3557H77.1814C78.4568 21.2618 77.6613 21.0355 80.3276 20.921C79.7082 19.3989 74.9935 8.34543 74.3268 7.91885L68.509 20.9529L70.5721 20.9522L71.6653 18.3556V18.3557Z" fill="white"/>
<path id="Vector_9" fill-rule="evenodd" clip-rule="evenodd" d="M53.876 19.3438C53.5009 18.6864 53.6624 15.2213 53.7586 14.5484C54.8176 14.1305 56.642 14.3739 57.8379 14.3702L57.776 12.8901L53.7754 12.8922L53.7733 9.6927L58.8409 9.69379L58.8595 8.05917L51.8992 8.10923L51.9004 20.9774L59.0991 20.9842L59.0718 19.3735L53.876 19.3438V19.3438Z" fill="white"/>
<path id="Vector_10" fill-rule="evenodd" clip-rule="evenodd" d="M114.149 8.51572C107.745 6.11288 105.112 11.2546 108.808 14.1546C109.928 15.0333 113.009 16.229 112.7 18.0781C112.532 19.0821 111.546 19.5266 110.334 19.511C108.915 19.4925 108.599 18.942 107.591 18.5918C107.221 19.274 107.061 19.3477 106.896 20.1694C108.744 20.9287 111.051 21.8661 113.166 20.6195C114.761 19.6792 115.167 17.1146 113.802 15.376C112.769 14.0596 109.953 13.0986 109.304 11.995C108.66 10.9027 109.419 9.85916 110.448 9.62297C111.591 9.36038 112.551 9.91797 113.599 10.1592L114.149 8.51585V8.51572Z" fill="white"/>
<path id="Vector_11" fill-rule="evenodd" clip-rule="evenodd" d="M63.9051 9.69557L63.908 20.956L65.7834 20.9436L65.7824 9.69393L69.0129 9.69379L69.032 8.05862L60.6895 8.12386L60.7199 9.67916L63.9051 9.69557Z" fill="white"/>
<path id="Vector_12" fill-rule="evenodd" clip-rule="evenodd" d="M12.0784 25.6635L12.2156 26.6618C11.614 26.4092 11.0668 26.1503 10.5492 25.8937C8.71736 24.986 9.41052 25.3665 9.19409 25.5154C9.69776 26.1423 10.8086 26.7801 11.5423 27.334C12.7499 28.2458 13.1783 27.9535 14.9378 27.962C17.0713 27.9721 16.7944 28.0577 18.2228 27.0167C18.876 26.5406 20.1308 25.9156 20.3411 25.2875L17.1899 26.5704C17.2251 25.672 17.4095 26.0735 17.2738 25.2639C17.2647 25.2101 17.2159 25.1787 17.2074 25.0717C17.1984 24.9614 17.164 24.9371 17.1275 24.8779L17.1379 25.6664C16.156 25.2863 13.1652 25.3507 12.0784 25.6635V25.6635Z" fill="#C4AB9C"/>
<path id="Vector_13" fill-rule="evenodd" clip-rule="evenodd" d="M12.416 23.1428L12.0784 25.6635C13.1652 25.3507 16.1559 25.2862 17.1379 25.6664L17.1275 24.8779L16.9268 23.0741C15.9785 22.4533 13.258 22.5162 12.416 23.1428Z" fill="#161616"/>
<path id="Vector_14" fill-rule="evenodd" clip-rule="evenodd" d="M9.42959 17.7002L11.3123 16.6921L12.0933 18.5446C12.6362 17.9698 12.8914 15.9333 12.6783 15.1021L6.70508 14.8861C6.97138 15.7293 6.68761 15.1955 7.20808 15.8318C7.39838 16.0645 7.66668 16.2982 7.89965 16.5414C8.50546 17.1741 8.59054 17.496 9.42973 17.7003L9.42959 17.7002Z" fill="#DB5C05"/>
<path id="Vector_15" fill-rule="evenodd" clip-rule="evenodd" d="M17.0722 18.3984C17.6176 17.858 17.6568 17.5415 18.0014 16.7602C18.7279 16.9612 19.5492 17.2884 19.9404 17.8205C19.9917 17.7977 20.0661 17.6984 20.0892 17.7407L20.8013 17.1708C21.4188 16.5229 22.3839 15.5724 22.6962 14.8564L16.6684 15.1256C16.5132 15.979 16.7636 17.6236 17.0722 18.3984V18.3984Z" fill="#DB5C05"/>
<path id="Vector_16" fill-rule="evenodd" clip-rule="evenodd" d="M8.62474 24.9363L8.74876 24.8912L9.14281 20.523L5.60498 20.5014C5.81821 21.0314 6.57872 22.1206 7.00224 22.7678C7.24748 23.1425 7.48271 23.4993 7.72381 23.8702L8.62474 24.9363Z" fill="#DB5C05"/>
<path id="Vector_17" fill-rule="evenodd" clip-rule="evenodd" d="M20.5895 24.838L20.847 25.0471L23.7402 20.4672L20.2058 20.9239C20.1854 21.0762 20.1921 21.2565 20.2006 21.4165L20.5895 24.838V24.838Z" fill="#DB5C05"/>
<path id="Vector_18" fill-rule="evenodd" clip-rule="evenodd" d="M17.1273 24.8778C17.1639 24.9371 17.1984 24.9614 17.2072 25.0716C17.2159 25.1785 17.2647 25.21 17.2736 25.2637C17.4094 26.0734 17.2251 25.6719 17.1898 26.5703L20.341 25.2874L21.2671 25.3463L20.8468 25.047L20.5893 24.8379L16.9265 23.0739L17.1272 24.8777L17.1273 24.8778Z" fill="#D9BDAF"/>
<path id="Vector_19" fill-rule="evenodd" clip-rule="evenodd" d="M8.74885 24.8912L8.62483 24.9363L8.05542 25.3927C8.63884 25.2194 8.74112 25.3083 9.19411 25.5152C9.41054 25.3663 8.71738 24.9858 10.5492 25.8935C11.0668 26.1501 11.6142 26.409 12.2156 26.6616L12.0784 25.6634L12.416 23.1426L8.74885 24.891V24.8912Z" fill="#D9BDAF"/>
<path id="Vector_20" fill-rule="evenodd" clip-rule="evenodd" d="M17.0723 18.3984C18.0656 18.5171 18.9345 17.8318 19.9404 17.8207C19.5491 17.2885 18.7278 16.9613 18.0015 16.7603C17.6569 17.5417 17.6178 17.858 17.0723 18.3985V18.3984Z" fill="#1C334A"/>
<path id="Vector_21" fill-rule="evenodd" clip-rule="evenodd" d="M9.42969 17.7002L12.0934 18.5446L11.3124 16.6921L9.42969 17.7002Z" fill="#1C334A"/>
<path id="Vector_22" fill-rule="evenodd" clip-rule="evenodd" d="M53.876 19.3438L53.8788 14.5791L57.8379 14.3701C56.6421 14.3739 54.8176 14.1303 53.7586 14.5483C53.6623 15.2212 53.5008 18.6864 53.876 19.3437V19.3438Z" fill="#C3C4C6"/>
</g>
</g>
</g>
<defs>
<clipPath id="clip0_101_32">
<rect width="126" height="28" fill="white"/>
</clipPath>
</defs>
</svg>
